<svg width="35" height="35" viewBox="0 0 35 35" fill="none" xmlns="http://www.w3.org/2000/svg">
<path fillRule="evenodd" clipRule="evenodd" d="M3.67502 11.4086C2.91669 12.7896 2.91669 14.4594 2.91669 17.7961V20.0156C2.91669 25.7031 2.91669 28.5484 4.62585 30.3159C6.33356 32.0834 9.08398 32.0834 14.5834 32.0834H20.4167C25.9161 32.0834 28.6665 32.0834 30.3742 30.3159C32.0834 28.5484 32.0834 25.7046 32.0834 20.0156V17.7975C32.0834 14.4594 32.0834 12.7911 31.325 11.4086C30.5696 10.0246 29.1856 9.1671 26.4192 7.44919L23.5025 5.6394C20.5786 3.82377 19.1159 2.91669 17.5 2.91669C15.8842 2.91669 14.4229 3.82377 11.4975 5.6394L8.58085 7.44919C5.8144 9.1671 4.4319 10.0246 3.67502 11.4086ZM18.5938 16.0417C18.5938 15.7516 18.4785 15.4734 18.2734 15.2683C18.0683 15.0632 17.7901 14.9479 17.5 14.9479C17.2099 14.9479 16.9317 15.0632 16.7266 15.2683C16.5215 15.4734 16.4063 15.7516 16.4063 16.0417V19.3229H13.125C12.8349 19.3229 12.5567 19.4382 12.3516 19.6433C12.1465 19.8484 12.0313 20.1266 12.0313 20.4167C12.0313 20.7068 12.1465 20.985 12.3516 21.1901C12.5567 21.3952 12.8349 21.5104 13.125 21.5104H16.4063V24.7917C16.4063 25.0818 16.5215 25.36 16.7266 25.5651C16.9317 25.7702 17.2099 25.8854 17.5 25.8854C17.7901 25.8854 18.0683 25.7702 18.2734 25.5651C18.4785 25.36 18.5938 25.0818 18.5938 24.7917V21.5104H21.875C22.1651 21.5104 22.4433 21.3952 22.6484 21.1901C22.8535 20.985 22.9688 20.7068 22.9688 20.4167C22.9688 20.1266 22.8535 19.8484 22.6484 19.6433C22.4433 19.4382 22.1651 19.3229 21.875 19.3229H18.5938V16.0417Z" fill="#353535"/>
</svg>
