<svg width="21" height="21" viewBox="0 0 21 21" fill="none" xmlns="http://www.w3.org/2000/svg">
<g clipPath="url(#clip0_17_102)">
<path d="M17.5 7.875C16.7383 7.87497 15.9897 7.67577 15.3287 7.29717C14.6677 6.91856 14.1171 6.37372 13.7317 5.71667H6.56252V4.66667C6.56252 4.51196 6.62398 4.36359 6.73338 4.25419C6.84277 4.1448 6.99114 4.08334 7.14585 4.08334H9.15252V3.68667C9.15252 3.32852 9.2948 2.98503 9.54805 2.73178C9.8013 2.47853 10.1448 2.33625 10.5029 2.33625C10.8611 2.33625 11.2046 2.47853 11.4578 2.73178C11.7111 2.98503 11.8534 3.32852 11.8534 3.68667V4.08334H13.1717C13.1451 3.89002 13.1315 3.69514 13.1309 3.5C13.1321 3.295 13.1477 3.09033 13.1775 2.8875H12.8859C12.718 2.38851 12.3977 1.95481 11.9701 1.64757C11.5426 1.34032 11.0294 1.17505 10.5029 1.17505C9.97646 1.17505 9.46326 1.34032 9.03573 1.64757C8.6082 1.95481 8.2879 2.38851 8.12002 2.8875H4.08335C3.9405 2.86684 3.79488 2.87671 3.65612 2.91646C3.51736 2.9562 3.3886 3.02493 3.27835 3.11809C3.1681 3.21125 3.07886 3.32674 3.01652 3.45692C2.95417 3.58711 2.92015 3.72904 2.91669 3.87334V18.8183C2.91745 18.9486 2.94386 19.0774 2.9944 19.1974C3.04494 19.3174 3.11863 19.4263 3.21126 19.5178C3.30389 19.6094 3.41364 19.6818 3.53425 19.7309C3.65485 19.78 3.78396 19.8049 3.91419 19.8042H17.0859C17.2161 19.8049 17.3452 19.78 17.4658 19.7309C17.5864 19.6818 17.6962 19.6094 17.7888 19.5178C17.8814 19.4263 17.9551 19.3174 18.0056 19.1974C18.0562 19.0774 18.0826 18.9486 18.0834 18.8183V7.83417C17.89 7.86074 17.6952 7.87438 17.5 7.875ZM15.0325 10.0392L9.71252 15.3592L6.65585 12.3025C6.50114 12.1478 6.41423 11.938 6.41423 11.7192C6.41423 11.5004 6.50114 11.2905 6.65585 11.1358C6.81056 10.9811 7.02039 10.8942 7.23919 10.8942C7.45798 10.8942 7.66781 10.9811 7.82252 11.1358L9.72419 13.0375L13.8892 8.8725C13.9658 8.7959 14.0567 8.73513 14.1568 8.69367C14.2569 8.65222 14.3642 8.63088 14.4725 8.63088C14.5809 8.63088 14.6881 8.65222 14.7882 8.69367C14.8883 8.73513 14.9792 8.7959 15.0559 8.8725C15.1325 8.94911 15.1932 9.04005 15.2347 9.14014C15.2761 9.24023 15.2975 9.3475 15.2975 9.45584C15.2975 9.56417 15.2761 9.67145 15.2347 9.77153C15.1932 9.87162 15.1325 9.96257 15.0559 10.0392H15.0325Z" fill="#353535"/>
<path d="M17.5 6.41665C19.1108 6.41665 20.4166 5.11081 20.4166 3.49998C20.4166 1.88915 19.1108 0.583313 17.5 0.583313C15.8891 0.583313 14.5833 1.88915 14.5833 3.49998C14.5833 5.11081 15.8891 6.41665 17.5 6.41665Z" fill="#353535"/>
</g>
<defs>
<clipPath id="clip0_17_102">
<rect width="21" height="21" fill="white"/>
</clipPath>
</defs>
</svg>
