<svg width="35" height="35" viewBox="0 0 35 35" fill="none" xmlns="http://www.w3.org/2000/svg">
<g clipPath="url(#clip0_82_2)">
<path fillRule="evenodd" clipRule="evenodd" d="M8.74998 2.91675C7.97643 2.91675 7.23457 3.22404 6.68758 3.77102C6.1406 4.318 5.83331 5.05987 5.83331 5.83341V29.1667C5.83331 29.9403 6.1406 30.6822 6.68758 31.2291C7.23457 31.7761 7.97643 32.0834 8.74998 32.0834H26.25C27.0235 32.0834 27.7654 31.7761 28.3124 31.2291C28.8594 30.6822 29.1666 29.9403 29.1666 29.1667V9.35383C29.1665 8.58035 28.8591 7.8386 28.3121 7.29175L24.7916 3.77133C24.2448 3.22431 23.503 2.91691 22.7296 2.91675H8.74998ZM23.6804 15.7399C23.8197 15.6053 23.9308 15.4444 24.0072 15.2665C24.0836 15.0886 24.1239 14.8972 24.1256 14.7036C24.1272 14.5099 24.0903 14.3179 24.017 14.1387C23.9437 13.9595 23.8354 13.7966 23.6985 13.6597C23.5615 13.5228 23.3987 13.4145 23.2195 13.3412C23.0403 13.2678 22.8482 13.231 22.6546 13.2326C22.461 13.2343 22.2696 13.2745 22.0917 13.351C21.9138 13.4274 21.7528 13.5385 21.6183 13.6778L15.4321 19.8655L13.3685 17.802C13.0935 17.5363 12.7251 17.3893 12.3427 17.3926C11.9604 17.396 11.5946 17.5493 11.3242 17.8197C11.0538 18.0901 10.9004 18.4559 10.8971 18.8382C10.8938 19.2206 11.0408 19.589 11.3064 19.864L14.296 22.8551C14.445 23.0041 14.6219 23.1224 14.8165 23.203C15.0112 23.2837 15.2199 23.3252 15.4306 23.3252C15.6413 23.3252 15.85 23.2837 16.0447 23.203C16.2393 23.1224 16.4162 23.0041 16.5652 22.8551L23.6804 15.7399Z" fill="#353535"/>
</g>
<defs>
<clipPath id="clip0_82_2">
<rect width="35" height="35" fill="white"/>
</clipPath>
</defs>
</svg>
